<svg viewBox="0 0 64 64" xmlns="http://www.w3.org/2000/svg">
  <defs>
    <linearGradient id="g" x1="0" y1="0" x2="1" y2="1">
      <stop offset="0%" stop-color="#a855f7"/>
      <stop offset="55%" stop-color="#ec4899"/>
      <stop offset="100%" stop-color="#f97316"/>
    </linearGradient>
    <linearGradient id="gs" x1="0" y1="0" x2="1" y2="1">
      <stop offset="0%" stop-color="#a855f7" stop-opacity="0.35"/>
      <stop offset="100%" stop-color="#ec4899" stop-opacity="0.35"/>
    </linearGradient>
  </defs>
  <rect width="64" height="64" rx="14" fill="#0b0b14"/>
  <path d="M10 9h26a8 8 0 0 1 8 8v13a8 8 0 0 1-8 8h-6l-7 6v-6h-13a8 8 0 0 1-8-8V17a8 8 0 0 1 8-8z" fill="url(#gs)" stroke="url(#g)" stroke-width="2.5" stroke-linejoin="round"/>
  <path d="M22 22h28a8 8 0 0 1 8 8v13a8 8 0 0 1-8 8H36l-7 6v-6h-7a8 8 0 0 1-8-8V30a8 8 0 0 1 8-8z" fill="url(#g)"/>
  <circle cx="30" cy="36.5" r="2.6" fill="#fff"/>
  <circle cx="38" cy="36.5" r="2.6" fill="#fff"/>
  <circle cx="46" cy="36.5" r="2.6" fill="#fff"/>
</svg>
