<svg viewBox="0 0 64 64" xmlns="http://www.w3.org/2000/svg">
  <defs>
    <linearGradient id="bg" x1="0" y1="0" x2="1" y2="1">
      <stop offset="0%" stop-color="#a855f7"/>
      <stop offset="55%" stop-color="#ec4899"/>
      <stop offset="100%" stop-color="#f97316"/>
    </linearGradient>
  </defs>
  <rect width="64" height="64" rx="14" fill="url(#bg)"/>
  <path d="M10 9h26a8 8 0 0 1 8 8v13a8 8 0 0 1-8 8h-6l-7 6v-6h-13a8 8 0 0 1-8-8V17a8 8 0 0 1 8-8z" fill="#ffffff" fill-opacity="0.22" stroke="#ffffff" stroke-opacity="0.85" stroke-width="2.5" stroke-linejoin="round"/>
  <path d="M22 22h28a8 8 0 0 1 8 8v13a8 8 0 0 1-8 8H36l-7 6v-6h-7a8 8 0 0 1-8-8V30a8 8 0 0 1 8-8z" fill="#ffffff"/>
  <circle cx="30" cy="36.5" r="2.6" fill="#ec4899"/>
  <circle cx="38" cy="36.5" r="2.6" fill="#a855f7"/>
  <circle cx="46" cy="36.5" r="2.6" fill="#f97316"/>
</svg>
